<?xml version="1.0" encoding="utf-8"?>
<svg width="592.99905" height="800.00001" version="1.1" style="" xmlns="http://www.w3.org/2000/svg">
  <rect id="backgroundrect" width="100%" height="100%" x="0" y="0" fill="none" stroke="none"/>
  <g class="currentLayer" style="">
    <title>Layer 1</title>
    <g id="svg_1" class="" fill-opacity="1" fill="#00296b" stroke="#fdc500" stroke-width="3" stroke-opacity="1">
      <path d="M 296.52 0 C 132.77 -0.011 0.01 132.73 0 296.48 C -0.011 460.25 296.52 800 296.52 800 C 296.52 800 593.01 460.23 593 296.48 C 592.989 132.74 460.26 0.01 296.52 0 Z M 297.732 65.035 C 450.992 65.043 515.838 145.648 515.848 298.908 C 515.838 452.168 294.096 672.274 294.096 672.274 C 294.096 672.274 67.465 450.967 67.455 297.697 C 67.463 144.427 143.24 65.025 296.52 65.035 L 297.732 65.035 Z M 297.732 153.923 C 222.332 153.906 159.986 221.084 159.98 296.484 C 159.963 371.9 219.892 439.102 295.308 439.085 C 370.708 439.079 433.037 371.884 433.02 296.484 C 433.014 221.1 373.116 153.929 297.732 153.923 Z M 292.884 205.44 C 360.56 205.457 383.901 228.799 383.918 296.475 C 383.924 364.166 361.787 388.745 294.096 388.762 C 226.389 388.767 204.227 364.182 204.233 296.475 C 204.25 228.784 225.193 205.435 292.884 205.44 Z" color="#000000" color-rendering="auto" fill="#00296b" image-rendering="auto" shape-rendering="auto" solid-color="#000000" style="isolation: auto; mix-blend-mode: normal; stroke-width: 10px;" id="svg_2" stroke="#fdc500" stroke-opacity="1" fill-opacity="1"/>
    </g>
  </g>
</svg>